<?xml version="1.0" encoding="utf-8"?>
<!-- Generator: Adobe Illustrator 16.0.0, SVG Export Plug-In . SVG Version: 6.00 Build 0)  -->
<!DOCTYPE svg PUBLIC "-//W3C//DTD SVG 1.1//EN" "http://www.w3.org/Graphics/SVG/1.1/DTD/svg11.dtd">
<svg version="1.1" id="Layer_1" xmlns="http://www.w3.org/2000/svg" xmlns:xlink="http://www.w3.org/1999/xlink" x="0px" y="0px"
	 width="612px" height="792px" viewBox="0 0 612 792" enable-background="new 0 0 612 792" xml:space="preserve">
<g>
	<text transform="matrix(0.621 0 0 1 322.9072 112.5576)" fill="#888888" font-family="'CenturyHanITC'" font-size="18">Relevant Courses</text>
</g>
<line fill="#888888" stroke="#888888" stroke-width="2" stroke-miterlimit="10" x1="315.447" y1="121.595" x2="554.536" y2="121.595"/>
<line fill="#888888" stroke="#888888" stroke-width="2" stroke-miterlimit="10" x1="330.084" y1="128.003" x2="330.084" y2="406.591"/>
<line fill="#888888" stroke="#888888" stroke-width="2" stroke-miterlimit="10" x1="324.506" y1="150.621" x2="335.756" y2="150.621"/>
<line fill="#888888" stroke="#888888" stroke-width="2" stroke-miterlimit="10" x1="324.506" y1="162.465" x2="335.756" y2="162.465"/>
<line fill="#888888" stroke="#888888" stroke-width="2" stroke-miterlimit="10" x1="324.506" y1="174.311" x2="335.756" y2="174.311"/>
<line fill="#888888" stroke="#888888" stroke-width="2" stroke-miterlimit="10" x1="324.506" y1="186.155" x2="335.756" y2="186.155"/>
<line fill="#888888" stroke="#888888" stroke-width="2" stroke-miterlimit="10" x1="324.506" y1="225.026" x2="335.756" y2="225.026"/>
<line fill="#888888" stroke="#888888" stroke-width="2" stroke-miterlimit="10" x1="324.506" y1="266.901" x2="335.756" y2="266.901"/>
<line fill="#888888" stroke="#888888" stroke-width="2" stroke-miterlimit="10" x1="324.506" y1="278.746" x2="335.756" y2="278.746"/>
<line fill="#888888" stroke="#888888" stroke-width="2" stroke-miterlimit="10" x1="324.506" y1="290.59" x2="335.756" y2="290.59"/>
<line fill="#888888" stroke="#888888" stroke-width="2" stroke-miterlimit="10" x1="324.506" y1="302.436" x2="335.756" y2="302.436"/>
<line fill="#888888" stroke="#888888" stroke-width="2" stroke-miterlimit="10" x1="324.506" y1="314.28" x2="335.756" y2="314.28"/>
<line fill="#888888" stroke="#888888" stroke-width="2" stroke-miterlimit="10" x1="324.506" y1="326.125" x2="335.756" y2="326.125"/>
<line fill="#888888" stroke="#888888" stroke-width="2" stroke-miterlimit="10" x1="324.506" y1="368" x2="335.756" y2="368"/>
<line fill="#888888" stroke="#888888" stroke-width="2" stroke-miterlimit="10" x1="324.506" y1="379.844" x2="335.756" y2="379.844"/>
<line fill="#888888" stroke="#888888" stroke-width="2" stroke-miterlimit="10" x1="324.506" y1="391.856" x2="335.756" y2="391.856"/>
<g>
	<text transform="matrix(0.621 0 0 1 322.9072 431.6807)" fill="#888888" font-family="'CenturyHanITC'" font-size="18">Software Proficiency</text>
</g>
<line fill="#888888" stroke="#888888" stroke-width="2" stroke-miterlimit="10" x1="315.447" y1="440.142" x2="539.536" y2="440.142"/>
<circle fill="#888888" stroke="#888888" stroke-miterlimit="10" cx="438.663" cy="459.205" r="4.218"/>
<circle fill="#888888" stroke="#888888" stroke-miterlimit="10" cx="428.53" cy="459.205" r="4.218"/>
<circle fill="#888888" stroke="#888888" stroke-miterlimit="10" cx="448.795" cy="459.205" r="4.218"/>
<circle fill="#888888" stroke="#888888" stroke-miterlimit="10" cx="458.928" cy="459.205" r="4.218"/>
<circle fill="#888888" stroke="#888888" stroke-miterlimit="10" cx="469.06" cy="459.205" r="4.218"/>
<circle opacity="0.3" fill="#888888" stroke="#888888" stroke-miterlimit="10" cx="479.192" cy="459.205" r="4.218"/>
<circle fill="#888888" stroke="#888888" stroke-miterlimit="10" cx="438.663" cy="480.709" r="4.218"/>
<circle fill="#888888" stroke="#888888" stroke-miterlimit="10" cx="428.53" cy="480.709" r="4.218"/>
<circle fill="#888888" stroke="#888888" stroke-miterlimit="10" cx="448.795" cy="480.709" r="4.218"/>
<circle fill="#888888" stroke="#888888" stroke-miterlimit="10" cx="458.928" cy="480.709" r="4.218"/>
<circle opacity="0.3" fill="#888888" stroke="#888888" stroke-miterlimit="10" cx="469.06" cy="480.709" r="4.218"/>
<circle opacity="0.3" fill="#888888" stroke="#888888" stroke-miterlimit="10" cx="479.192" cy="480.709" r="4.218"/>
<circle fill="#888888" stroke="#888888" stroke-miterlimit="10" cx="438.663" cy="501.21" r="4.218"/>
<circle fill="#888888" stroke="#888888" stroke-miterlimit="10" cx="428.53" cy="501.21" r="4.218"/>
<circle fill="#888888" stroke="#888888" stroke-miterlimit="10" cx="448.795" cy="501.21" r="4.218"/>
<circle fill="#888888" stroke="#888888" stroke-miterlimit="10" cx="458.928" cy="501.21" r="4.218"/>
<circle fill="#888888" stroke="#888888" stroke-miterlimit="10" cx="469.06" cy="501.21" r="4.218"/>
<circle fill="#888888" stroke="#888888" stroke-miterlimit="10" cx="479.192" cy="501.21" r="4.218"/>
<circle fill="#888888" stroke="#888888" stroke-miterlimit="10" cx="438.663" cy="542.216" r="4.218"/>
<circle fill="#888888" stroke="#888888" stroke-miterlimit="10" cx="428.53" cy="542.216" r="4.218"/>
<circle fill="#888888" stroke="#888888" stroke-miterlimit="10" cx="448.795" cy="542.216" r="4.218"/>
<circle fill="#888888" stroke="#888888" stroke-miterlimit="10" cx="458.928" cy="542.216" r="4.218"/>
<circle fill="#888888" stroke="#888888" stroke-miterlimit="10" cx="469.06" cy="542.216" r="4.218"/>
<circle opacity="0.3" fill="#888888" stroke="#888888" stroke-miterlimit="10" cx="479.192" cy="542.216" r="4.218"/>
<circle fill="#888888" stroke="#888888" stroke-miterlimit="10" cx="438.663" cy="562.718" r="4.218"/>
<circle fill="#888888" stroke="#888888" stroke-miterlimit="10" cx="428.53" cy="562.718" r="4.218"/>
<circle fill="#888888" stroke="#888888" stroke-miterlimit="10" cx="448.795" cy="562.718" r="4.218"/>
<circle fill="#888888" stroke="#888888" stroke-miterlimit="10" cx="458.928" cy="562.718" r="4.218"/>
<circle fill="#888888" stroke="#888888" stroke-miterlimit="10" cx="469.06" cy="562.718" r="4.218"/>
<circle fill="#888888" stroke="#888888" stroke-miterlimit="10" cx="479.192" cy="562.718" r="4.218"/>
<g>
	<rect x="343.279" y="455.525" fill="none" width="67.165" height="13.114"/>
	<text transform="matrix(1 0 0 1 343.2803 464.1318)" fill="#F0638C" font-family="'PlayfairDisplay-Regular'" font-size="11">Sublime Text</text>
</g>
<g>
	<rect x="343.298" y="476.027" fill="none" width="67.165" height="13.114"/>
	<text transform="matrix(1 0 0 1 343.2988 484.6348)" fill="#F0638C" font-family="'PlayfairDisplay-Regular'" font-size="11">Photoshop</text>
</g>
<g>
	<rect x="343.298" y="496.529" fill="none" width="67.165" height="13.114"/>
	<text transform="matrix(1 0 0 1 343.2988 505.1357)" fill="#F0638C" font-family="'PlayfairDisplay-Regular'" font-size="11">Illustrator</text>
</g>
<g>
	<rect x="343.298" y="517.032" fill="none" width="67.165" height="13.114"/>
	<text transform="matrix(1 0 0 1 343.2988 525.6377)" fill="#F0638C" font-family="'PlayfairDisplay-Regular'" font-size="11">InDesign</text>
</g>
<g>
	<rect x="343.298" y="537.534" fill="none" width="77.165" height="13.115"/>
	<text transform="matrix(1 0 0 1 343.2979 546.1621)" fill="#F0638C" font-family="'PlayfairDisplay-Regular'" font-size="11">Dreamweaver</text>
</g>
<g>
	<rect x="343.298" y="558.038" fill="none" width="67.165" height="13.113"/>
	<text transform="matrix(1 0 0 1 343.2988 566.6436)" fill="#F0638C" font-family="'PlayfairDisplay-Regular'" font-size="11">MS Office</text>
</g>
<g>
	<rect x="343.298" y="578.54" fill="none" width="67.165" height="13.114"/>
	<text transform="matrix(1 0 0 1 343.2988 587.1455)" fill="#F0638C" font-family="'PlayfairDisplay-Regular'" font-size="11">SEO</text>
</g>
<circle fill="#888888" stroke="#888888" stroke-miterlimit="10" cx="438.663" cy="583.22" r="4.218"/>
<circle fill="#888888" stroke="#888888" stroke-miterlimit="10" cx="428.53" cy="583.22" r="4.218"/>
<circle fill="#888888" stroke="#888888" stroke-miterlimit="10" cx="448.795" cy="583.22" r="4.218"/>
<circle opacity="0.3" fill="#888888" stroke="#888888" stroke-miterlimit="10" cx="458.928" cy="583.22" r="4.218"/>
<circle opacity="0.3" fill="#888888" stroke="#888888" stroke-miterlimit="10" cx="469.06" cy="583.22" r="4.218"/>
<circle opacity="0.3" fill="#888888" stroke="#888888" stroke-miterlimit="10" cx="479.192" cy="583.22" r="4.218"/>
<circle fill="#888888" stroke="#888888" stroke-miterlimit="10" cx="438.663" cy="521.713" r="4.218"/>
<circle fill="#888888" stroke="#888888" stroke-miterlimit="10" cx="428.53" cy="521.713" r="4.218"/>
<circle fill="#888888" stroke="#888888" stroke-miterlimit="10" cx="448.795" cy="521.713" r="4.218"/>
<circle fill="#888888" stroke="#888888" stroke-miterlimit="10" cx="458.928" cy="521.713" r="4.218"/>
<circle fill="#888888" stroke="#888888" stroke-miterlimit="10" cx="469.06" cy="521.713" r="4.218"/>
<circle fill="#888888" stroke="#888888" stroke-miterlimit="10" cx="479.192" cy="521.713" r="4.218"/>
<line fill="#888888" stroke="#888888" stroke-width="2" stroke-miterlimit="10" x1="330.292" y1="448.024" x2="330.292" y2="594.234"/>
<line fill="#888888" stroke="#888888" stroke-width="2" stroke-miterlimit="10" x1="325.063" y1="460.032" x2="335.608" y2="460.032"/>
<line fill="#888888" stroke="#888888" stroke-width="2" stroke-miterlimit="10" x1="325.063" y1="481.517" x2="335.608" y2="481.517"/>
<line fill="#888888" stroke="#888888" stroke-width="2" stroke-miterlimit="10" x1="325.063" y1="500.999" x2="335.608" y2="500.999"/>
<line fill="#888888" stroke="#888888" stroke-width="2" stroke-miterlimit="10" x1="325.063" y1="521.483" x2="335.608" y2="521.483"/>
<line fill="#888888" stroke="#888888" stroke-width="2" stroke-miterlimit="10" x1="325.063" y1="541.967" x2="335.608" y2="541.967"/>
<line fill="#888888" stroke="#888888" stroke-width="2" stroke-miterlimit="10" x1="325.063" y1="562.45" x2="335.608" y2="562.45"/>
<line fill="#888888" stroke="#888888" stroke-width="2" stroke-miterlimit="10" x1="325.063" y1="581.933" x2="335.608" y2="581.933"/>
<g>
	<text transform="matrix(0.621 0 0 1 52.5933 112.5576)" fill="#888888" font-family="'CenturyHanITC'" font-size="18">Education</text>
</g>
<g>
	<rect x="51.609" y="131.003" fill="none" width="54.661" height="14.992"/>
	
		<text transform="matrix(1 0 0 1 51.6089 139.7988)" fill="#F0638D" stroke="#F0638D" stroke-width="0.25" stroke-miterlimit="10" font-family="'basictitlefont'" font-size="12">2012-2015</text>
</g>
<rect x="125.922" y="130.669" fill="none" width="186.491" height="111.326"/>
<text transform="matrix(1 0 0 1 125.9224 140.0796)"><tspan x="0" y="0" fill="#888888" font-family="'PlayfairDisplay-Regular'" font-size="12">BA Technical Communication</tspan><tspan x="0" y="14.4" fill="#888888" font-family="'PlayfairDisplay-Regular'" font-size="12">Minors: Linguistics &amp; Design</tspan><tspan x="0" y="27.6" fill="#F0638C" font-family="'PlayfairDisplay-Regular'" font-size="11">Eastern Washington University</tspan><tspan x="0" y="39.6" fill="#888888" font-family="'PlayfairDisplay-Regular'" font-size="10">CGPA 3.85</tspan><tspan x="0" y="68.4" fill="#888888" font-family="'PlayfairDisplay-Regular'" font-size="12">AA Liberal and Applied Science</tspan><tspan x="0" y="81.6" fill="#F0638C" font-family="'PlayfairDisplay-Regular'" font-size="11">Lake Superior College</tspan><tspan x="0" y="93.6" fill="#888888" font-family="'PlayfairDisplay-Regular'" font-size="10">CGPA 3.61</tspan></text>
<line fill="#888888" stroke="#888888" stroke-width="2" stroke-miterlimit="10" x1="116.084" y1="128.003" x2="116.084" y2="245.003"/>
<line fill="#888888" stroke="#888888" stroke-width="2" stroke-miterlimit="10" x1="46" y1="121.596" x2="296" y2="121.596"/>
<line fill="#888888" stroke="#888888" stroke-width="2" stroke-miterlimit="10" x1="109.872" y1="135.596" x2="121.123" y2="135.596"/>
<line fill="#888888" stroke="#888888" stroke-width="2" stroke-miterlimit="10" x1="109.872" y1="204.593" x2="121.122" y2="204.593"/>
<g>
	
		<text transform="matrix(1 0 0 1 51.6094 210.3994)" fill="#F0638D" stroke="#F0638D" stroke-width="0.25" stroke-miterlimit="10" font-family="'basictitlefont'" font-size="12">2009-2011</text>
</g>
<g>
	<text transform="matrix(0.621 0 0 1 51.999 268.5405)" fill="#888888" font-family="'CenturyHanITC'" font-size="18">Work Experience</text>
</g>
<line fill="#888888" stroke="#888888" stroke-width="2" stroke-miterlimit="10" x1="44.999" y1="277.572" x2="294.999" y2="277.572"/>
<line fill="#888888" stroke="#888888" stroke-width="2" stroke-miterlimit="10" x1="116.083" y1="285.983" x2="116.083" y2="755.994"/>
<line fill="#888888" stroke="#888888" stroke-width="2" stroke-miterlimit="10" x1="109.871" y1="297.691" x2="121.121" y2="297.691"/>
<line fill="#888888" stroke="#888888" stroke-width="2" stroke-miterlimit="10" x1="109.871" y1="387.67" x2="121.121" y2="387.67"/>
<line fill="#888888" stroke="#888888" stroke-width="2" stroke-miterlimit="10" x1="109.871" y1="452.733" x2="121.121" y2="452.733"/>
<line fill="#888888" stroke="#888888" stroke-width="2" stroke-miterlimit="10" x1="109.871" y1="623.9" x2="121.121" y2="623.9"/>
<g>
	<rect x="51.608" y="292.075" fill="none" width="54.66" height="13.234"/>
	
		<text transform="matrix(1 0 0 1 51.6084 300.873)" fill="#F0638D" stroke="#F0638D" stroke-width="0.25" stroke-miterlimit="10" font-family="'basictitlefont'" font-size="12">2013-2014</text>
</g>
<rect x="126.923" y="290.672" fill="none" width="194.49" height="493.324"/>
<text transform="matrix(1 0 0 1 126.9229 301.6514)"><tspan x="0" y="0" fill="#888888" font-family="'PlayfairDisplay-Regular'" font-size="14">Web Development</tspan><tspan x="0" y="13.2" fill="#F0638C" font-family="'PlayfairDisplay-Regular'" font-size="11">SpokaneX.com</tspan><tspan x="0" y="25.2" fill="#888888" font-family="'PlayfairDisplay-Regular'" font-size="10">Editing</tspan><tspan x="0" y="37.2" fill="#888888" font-family="'PlayfairDisplay-Regular'" font-size="10">SEO</tspan><tspan x="0" y="49.2" fill="#888888" font-family="'PlayfairDisplay-Regular'" font-size="10">Website Design</tspan><tspan x="0" y="61.2" fill="#888888" font-family="'PlayfairDisplay-Regular'" font-size="10">Writing</tspan><tspan x="0" y="90" fill="#888888" font-family="'PlayfairDisplay-Regular'" font-size="14">Graphic Designer</tspan><tspan x="0" y="103.2" fill="#F0638C" font-family="'PlayfairDisplay-Regular'" font-size="11">JJ’s Grill &amp; Brewhouse</tspan><tspan x="0" y="115.2" fill="#888888" font-family="'PlayfairDisplay-Regular'" font-size="10">Menu Design</tspan><tspan x="0" y="127.2" fill="#888888" font-family="'PlayfairDisplay-Regular'" font-size="10">Social Media Administration</tspan><tspan x="0" y="156" fill="#888888" font-family="'PlayfairDisplay-Regular'" font-size="14">Graphic Designer</tspan><tspan x="0" y="172.8" fill="#888888" font-family="'PlayfairDisplay-Regular'" font-size="14">Marketing</tspan><tspan x="0" y="189.601" fill="#888888" font-family="'PlayfairDisplay-Regular'" font-size="14">Public Relations</tspan><tspan x="0" y="202.8" fill="#F0638C" font-family="'PlayfairDisplay-Regular'" font-size="11">Priest Lake Marina &amp; Resort</tspan><tspan x="0" y="214.8" fill="#888888" font-family="'PlayfairDisplay-Regular'" font-size="10">Branding</tspan><tspan x="0" y="226.8" fill="#888888" font-family="'PlayfairDisplay-Regular'" font-size="10">Brochures</tspan><tspan x="0" y="238.8" fill="#888888" font-family="'PlayfairDisplay-Regular'" font-size="10">Identity Packaging</tspan><tspan x="0" y="250.8" fill="#888888" font-family="'PlayfairDisplay-Regular'" font-size="10">logo design</tspan><tspan x="0" y="262.8" fill="#888888" font-family="'PlayfairDisplay-Regular'" font-size="10">Marketing &amp; Advertising</tspan><tspan x="0" y="274.8" fill="#888888" font-family="'PlayfairDisplay-Regular'" font-size="10">Menus</tspan><tspan x="0" y="286.8" fill="#888888" font-family="'PlayfairDisplay-Regular'" font-size="10">Social Media Administration</tspan><tspan x="0" y="298.8" fill="#888888" font-family="'PlayfairDisplay-Regular'" font-size="10">Website Design</tspan><tspan x="0" y="327.6" fill="#888888" font-family="'PlayfairDisplay-Regular'" font-size="14">Graphic Designer</tspan><tspan x="0" y="344.4" fill="#888888" font-family="'PlayfairDisplay-Regular'" font-size="14">Marketing</tspan><tspan x="0" y="361.2" fill="#888888" font-family="'PlayfairDisplay-Regular'" font-size="14">Production Manager</tspan><tspan x="0" y="374.4" fill="#F0638C" font-family="'PlayfairDisplay-Regular'" font-size="11">Priest Lake Chamber of Commerce</tspan><tspan x="0" y="386.4" fill="#888888" font-family="'PlayfairDisplay-Regular'" font-size="10">Advertising Account Executive</tspan><tspan x="0" y="398.4" fill="#888888" font-family="'PlayfairDisplay-Regular'" font-size="10">Graphic Design</tspan><tspan x="0" y="410.4" fill="#888888" font-family="'PlayfairDisplay-Regular'" font-size="10">Marketing</tspan><tspan x="0" y="422.4" fill="#888888" font-family="'PlayfairDisplay-Regular'" font-size="10">Visitor Guide Production</tspan><tspan x="0" y="434.4" fill="#888888" font-family="'PlayfairDisplay-Regular'" font-size="10">Visitor Guide Advertising Sales</tspan><tspan x="0" y="446.4" fill="#888888" font-family="'PlayfairDisplay-Regular'" font-size="10">Visitor Guide Design</tspan></text>
<g>
	
		<text transform="matrix(1 0 0 1 51.6084 391.5864)" fill="#F0638D" stroke="#F0638D" stroke-width="0.25" stroke-miterlimit="10" font-family="'basictitlefont'" font-size="12">2012-2014</text>
</g>
<g>
	
		<text transform="matrix(1 0 0 1 51.6084 457.5908)" fill="#F0638D" stroke="#F0638D" stroke-width="0.25" stroke-miterlimit="10" font-family="'basictitlefont'" font-size="12">2010-2012</text>
</g>
<g>
	
		<text transform="matrix(1 0 0 1 51.6084 628.0908)" fill="#F0638D" stroke="#F0638D" stroke-width="0.25" stroke-miterlimit="10" font-family="'basictitlefont'" font-size="12">2006-2009</text>
</g>
<text transform="matrix(1 0 0 1 324.2344 726.5996)"><tspan x="0" y="0" fill="#888888" font-family="'PlayfairDisplay-Regular'" font-size="12">“We Are what we repeatedly do. excellence,</tspan><tspan x="0" y="14.4" fill="#888888" font-family="'PlayfairDisplay-Regular'" font-size="12">then, is not an act but a habit.”</tspan></text>
<text transform="matrix(1 0 0 1 494.6289 741.4619)" fill="#F0638C" font-family="'PlayfairDisplay-Regular'" font-size="13">Aristotle</text>
<line fill="#888888" stroke="#888888" stroke-width="2" stroke-miterlimit="10" x1="315.496" y1="711.492" x2="565.496" y2="711.492"/>
<line fill="#888888" stroke="#888888" stroke-width="2" stroke-miterlimit="10" x1="315.496" y1="748.489" x2="565.496" y2="748.489"/>
<g>
	
		<text transform="matrix(1 0 0 1 164.7832 84.5913)" fill="#F0648E" stroke="#F0648E" stroke-width="0.25" stroke-miterlimit="10" font-family="'PlayfairDisplay-Regular'" font-size="18">Graphic Designer &amp; Web Developer</text>
</g>
<text transform="matrix(0.621 0 0 1 121.7886 63.5728)" fill="#898989" font-family="'CenturyHanITC'" font-size="40">VIENNA  MARIE SPRENKEL</text>
<line fill="#888888" stroke="#888888" stroke-width="2" stroke-miterlimit="10" x1="47.376" y1="92.601" x2="557.551" y2="92.601"/>
<line fill="#888888" stroke="#888888" stroke-width="2" stroke-miterlimit="10" x1="47.391" y1="25.6" x2="557.564" y2="25.6"/>
<rect x="343.918" y="130.183" fill="none" width="153.662" height="279.825"/>
<text transform="matrix(1 0 0 1 343.918 141.1611)"><tspan x="0" y="0" fill="#F0648E" stroke="#F0648E" stroke-width="0.25" stroke-miterlimit="10" font-family="'PlayfairDisplay-Regular'" font-size="14">Graphic Design</tspan><tspan x="0" y="12" fill="#888888" font-family="'PlayfairDisplay-Regular'" font-size="10">Computer Graphics</tspan><tspan x="0" y="24" fill="#888888" font-family="'PlayfairDisplay-Regular'" font-size="10">Desktop Publishing</tspan><tspan x="0" y="36" fill="#888888" font-family="'PlayfairDisplay-Regular'" font-size="10">Typography</tspan><tspan x="0" y="48" fill="#888888" font-family="'PlayfairDisplay-Regular'" font-size="10">Visual Communication Design</tspan><tspan x="0" y="76.8" fill="#F0648E" stroke="#F0648E" stroke-width="0.25" stroke-miterlimit="10" font-family="'PlayfairDisplay-Regular'" font-size="14">Web Design</tspan><tspan x="0" y="88.8" fill="#888888" font-family="'PlayfairDisplay-Regular'" font-size="10">Web Design Theory &amp; Practice</tspan><tspan x="0" y="117.6" fill="#F0648E" stroke="#F0648E" stroke-width="0.25" stroke-miterlimit="10" font-family="'PlayfairDisplay-Regular'" font-size="14">Writing &amp; Editing</tspan><tspan x="0" y="129.6" fill="#888888" font-family="'PlayfairDisplay-Regular'" font-size="10">Interpersonal Communication</tspan><tspan x="0" y="141.6" fill="#888888" font-family="'PlayfairDisplay-Regular'" font-size="10">Language, Structure &amp;  Use</tspan><tspan x="0" y="153.6" fill="#888888" font-family="'PlayfairDisplay-Regular'" font-size="10">Grammar for Teachers</tspan><tspan x="0" y="165.6" fill="#888888" font-family="'PlayfairDisplay-Regular'" font-size="10">Modern Grammar</tspan><tspan x="0" y="177.6" fill="#888888" font-family="'PlayfairDisplay-Regular'" font-size="10">Professional Writing</tspan><tspan x="0" y="189.6" fill="#888888" font-family="'PlayfairDisplay-Regular'" font-size="10">Technical Editing</tspan><tspan x="0" y="218.4" fill="#F0648E" stroke="#F0648E" stroke-width="0.25" stroke-miterlimit="10" font-family="'PlayfairDisplay-Regular'" font-size="14">Public Relations</tspan><tspan x="0" y="230.4" fill="#888888" font-family="'PlayfairDisplay-Regular'" font-size="10">Public Relation Theory</tspan><tspan x="0" y="242.4" fill="#888888" font-family="'PlayfairDisplay-Regular'" font-size="10">Advanced Public Relation Theory</tspan><tspan x="0" y="254.4" fill="#888888" font-family="'PlayfairDisplay-Regular'" font-size="10">Public Relations Writing </tspan></text>
<rect x="342.471" y="649.67" fill="none" width="183.49" height="22.325"/>
<text transform="matrix(1 0 0 1 342.4707 660.6484)" fill="#F0638C" font-family="'PlayfairDisplay-Regular'" font-size="14">Upon Request</text>
<line fill="#888888" stroke="#888888" stroke-width="2" stroke-miterlimit="10" x1="315.444" y1="635.58" x2="554.533" y2="635.58"/>
<line fill="#888888" stroke="#888888" stroke-width="2" stroke-miterlimit="10" x1="330.292" y1="642.984" x2="330.292" y2="679"/>
<line fill="#888888" stroke="#888888" stroke-width="2" stroke-miterlimit="10" x1="324.453" y1="655.728" x2="335.703" y2="655.728"/>
<g>
	<text transform="matrix(0.621 0 0 1 322.9072 626.5781)" fill="#888888" font-family="'CenturyHanITC'" font-size="18">References </text>
	
		<text transform="matrix(1 0 0 1 390.8369 626.5781)" fill="#888888" stroke="#888888" stroke-miterlimit="10" font-family="'PlayfairDisplay-Regular'" font-size="14">&amp;</text>
	<text transform="matrix(0.621 0 0 1 402.5537 626.5781)" fill="#888888" font-family="'CenturyHanITC'" font-size="18"> Recommendations</text>
</g>
</svg>
